<svg width="28" height="28" viewBox="0 0 28 28" fill="none" xmlns="http://www.w3.org/2000/svg">
<path d="M6.95919 3.65869C6.16773 3.87066 5.44603 4.28728 4.86665 4.86665C4.28728 5.44603 3.87066 6.16773 3.65869 6.95919M21.0409 3.65869C21.8323 3.87066 22.554 4.28728 23.1334 4.86665C23.7128 5.44603 24.1294 6.16773 24.3414 6.95919" stroke="white" stroke-width="2" stroke-linecap="round"/>
<path fill-rule="evenodd" clip-rule="evenodd" d="M14.0001 23.3334C16.4754 23.3334 18.8494 22.35 20.5997 20.5997C22.3501 18.8493 23.3334 16.4754 23.3334 14C23.3334 11.5247 22.3501 9.1507 20.5997 7.40036C18.8494 5.65002 16.4754 4.66669 14.0001 4.66669C11.5247 4.66669 9.15076 5.65002 7.40042 7.40036C5.65008 9.1507 4.66675 11.5247 4.66675 14C4.66675 16.4754 5.65008 18.8493 7.40042 20.5997C9.15076 22.35 11.5247 23.3334 14.0001 23.3334ZM15.1667 9.33335C15.1667 9.02393 15.0438 8.72719 14.825 8.5084C14.6062 8.2896 14.3095 8.16669 14.0001 8.16669C13.6907 8.16669 13.3939 8.2896 13.1751 8.5084C12.9563 8.72719 12.8334 9.02393 12.8334 9.33335V13.7084C12.8334 14.5134 13.4867 15.1667 14.2917 15.1667H17.5001C17.8095 15.1667 18.1062 15.0438 18.325 14.825C18.5438 14.6062 18.6667 14.3094 18.6667 14C18.6667 13.6906 18.5438 13.3939 18.325 13.1751C18.1062 12.9563 17.8095 12.8334 17.5001 12.8334H15.1667V9.33335Z" fill="white"/>
</svg>
