<svg width="28" height="28" viewBox="0 0 28 28" fill="none" xmlns="http://www.w3.org/2000/svg">
<path d="M25.375 4.40234H19.1187C17.7762 4.40234 16.4637 4.78789 15.3344 5.51524L14 6.37109L12.6656 5.51524C11.5375 4.78803 10.2235 4.40163 8.88125 4.40234H2.625C2.14102 4.40234 1.75 4.79336 1.75 5.27734V20.8086C1.75 21.2926 2.14102 21.6836 2.625 21.6836H8.88125C10.2238 21.6836 11.5363 22.0691 12.6656 22.7965L13.8797 23.5785C13.9152 23.6004 13.9563 23.6141 13.9973 23.6141C14.0383 23.6141 14.0793 23.6031 14.1148 23.5785L15.3289 22.7965C16.4609 22.0691 17.7762 21.6836 19.1187 21.6836H25.375C25.859 21.6836 26.25 21.2926 26.25 20.8086V5.27734C26.25 4.79336 25.859 4.40234 25.375 4.40234ZM11.0469 15.1348C11.0469 15.2469 10.9594 15.3398 10.8527 15.3398H5.77227C5.66563 15.3398 5.57812 15.2469 5.57812 15.1348V13.9043C5.57812 13.7922 5.66563 13.6992 5.77227 13.6992H10.85C10.9566 13.6992 11.0441 13.7922 11.0441 13.9043V15.1348H11.0469ZM11.0469 11.3066C11.0469 11.4188 10.9594 11.5117 10.8527 11.5117H5.77227C5.66563 11.5117 5.57812 11.4188 5.57812 11.3066V10.0762C5.57812 9.96406 5.66563 9.87109 5.77227 9.87109H10.85C10.9566 9.87109 11.0441 9.96406 11.0441 10.0762V11.3066H11.0469ZM22.4219 15.1348C22.4219 15.2469 22.3344 15.3398 22.2277 15.3398H17.1473C17.0406 15.3398 16.9531 15.2469 16.9531 15.1348V13.9043C16.9531 13.7922 17.0406 13.6992 17.1473 13.6992H22.225C22.3316 13.6992 22.4191 13.7922 22.4191 13.9043V15.1348H22.4219ZM22.4219 11.3066C22.4219 11.4188 22.3344 11.5117 22.2277 11.5117H17.1473C17.0406 11.5117 16.9531 11.4188 16.9531 11.3066V10.0762C16.9531 9.96406 17.0406 9.87109 17.1473 9.87109H22.225C22.3316 9.87109 22.4191 9.96406 22.4191 10.0762V11.3066H22.4219Z" fill="white"/>
</svg>
