<svg width="28" height="28" viewBox="0 0 28 28" fill="none" xmlns="http://www.w3.org/2000/svg">
<g clip-path="url(#clip0_23_292)">
<path d="M10.0587 25.1294C10.1594 25.2386 10.213 25.3832 10.2077 25.5317C10.2025 25.6801 10.1389 25.8206 10.0307 25.9224L8.81437 27.0598C8.70569 27.1605 8.5615 27.2141 8.41339 27.2087C8.26528 27.2034 8.12533 27.1395 8.02421 27.0312L0.94077 19.3973C0.84011 19.288 0.786644 19.1434 0.791992 18.9949C0.79734 18.8464 0.861069 18.7061 0.96933 18.6043L2.18733 17.4686C2.29601 17.3679 2.4402 17.3143 2.58831 17.3196C2.73642 17.325 2.87637 17.3888 2.97749 17.4972L10.0587 25.1294ZM19.0971 10.7654C19.1978 10.8747 19.2512 11.0193 19.2459 11.1678C19.2405 11.3163 19.1768 11.4566 19.0685 11.5584L11.4133 18.7096C11.3047 18.8104 11.1605 18.8639 11.0123 18.8586C10.8642 18.8532 10.7243 18.7894 10.6232 18.681L8.79589 16.7093C8.69523 16.6 8.64176 16.4554 8.64711 16.3069C8.65246 16.1584 8.71619 16.0181 8.82445 15.9163L16.478 8.76511C16.5317 8.7151 16.5947 8.67616 16.6635 8.65052C16.7322 8.62488 16.8054 8.61305 16.8787 8.61571C16.952 8.61836 17.0241 8.63544 17.0908 8.66598C17.1576 8.69652 17.2176 8.73991 17.2676 8.79367L19.0971 10.7654ZM12.6633 22.6951C12.8727 22.9208 12.8598 23.2775 12.6347 23.4881L11.4167 24.6249C11.308 24.7256 11.1638 24.7792 11.0157 24.7739C10.8676 24.7685 10.7276 24.7047 10.6265 24.5963L3.54701 16.9624C3.44628 16.8532 3.39271 16.7086 3.39796 16.5602C3.4032 16.4117 3.46683 16.2713 3.57501 16.1694L4.79077 15.0332C4.89945 14.9324 5.04364 14.8788 5.19175 14.8842C5.33986 14.8896 5.47981 14.9534 5.58093 15.0618L12.6633 22.6951ZM24.4585 11.0393C24.5591 11.1486 24.6125 11.2933 24.607 11.4417C24.6016 11.5902 24.5377 11.7306 24.4294 11.8322L23.212 12.969C23.1033 13.07 22.9591 13.1238 22.8108 13.1186C22.6626 13.1133 22.5225 13.0495 22.4212 12.941L15.3406 5.30879C15.2397 5.19965 15.1861 5.05507 15.1913 4.90655C15.1966 4.75802 15.2603 4.61759 15.3686 4.51583L16.5894 3.37623C16.6431 3.32622 16.7061 3.28728 16.7749 3.26164C16.8437 3.236 16.9168 3.22417 16.9901 3.22683C17.0635 3.22948 17.1356 3.24656 17.2023 3.2771C17.269 3.30764 17.3291 3.35103 17.379 3.40479L24.4585 11.0393ZM27.0592 8.60887C27.1596 8.71838 27.2129 8.863 27.2075 9.01149C27.2022 9.15997 27.1386 9.30039 27.0306 9.40239L25.8154 10.5386C25.7617 10.5887 25.6987 10.6277 25.63 10.6534C25.5613 10.679 25.4881 10.6909 25.4148 10.6883C25.3415 10.6857 25.2694 10.6687 25.2026 10.6382C25.1359 10.6077 25.0758 10.5644 25.0258 10.5106L17.9463 2.87503C17.8458 2.7656 17.7924 2.62102 17.7976 2.47253C17.8029 2.32405 17.8663 2.18359 17.9743 2.08151L19.1906 0.943034C19.2442 0.892931 19.3071 0.853901 19.3758 0.828183C19.4445 0.802465 19.5176 0.790565 19.5909 0.793167C19.6643 0.795768 19.7363 0.81282 19.803 0.843342C19.8697 0.873865 19.9298 0.917259 19.9797 0.971034L27.0592 8.60887Z" fill="white"/>
</g>
<defs>
<clipPath id="clip0_23_292">
<rect width="28" height="28" fill="white"/>
</clipPath>
</defs>
</svg>
