<svg width="28" height="28" viewBox="0 0 28 28" fill="none" xmlns="http://www.w3.org/2000/svg">
<path d="M11.7653 1.8445C11.881 1.90191 11.9827 1.98425 12.0629 2.08561C12.1431 2.18698 12.1998 2.30485 12.229 2.43075C12.2605 2.569 13.125 6.2685 13.125 8.75C13.125 10.4125 12.3515 11.8948 11.1475 12.8555C10.71 13.2055 10.5 13.587 10.5 13.9055V14.756C10.5 14.7968 10.5023 14.8353 10.507 14.8715C10.5665 15.3055 10.7817 16.9173 10.983 18.5885C11.1807 20.2283 11.375 22.0168 11.375 22.75C11.375 23.6783 11.0063 24.5685 10.3499 25.2249C9.6935 25.8813 8.80326 26.25 7.875 26.25C6.94674 26.25 6.0565 25.8813 5.40013 25.2249C4.74375 24.5685 4.375 23.6783 4.375 22.75C4.375 22.015 4.56925 20.23 4.767 18.5885C4.96825 16.9173 5.1835 15.3055 5.243 14.8715L5.25 14.756V13.9055C5.25 13.587 5.04 13.2055 4.6025 12.8555C3.98559 12.3637 3.48745 11.7393 3.14509 11.0285C2.80273 10.3177 2.62497 9.53893 2.625 8.75C2.625 6.27725 3.4825 2.597 3.521 2.4325C3.56649 2.23797 3.67656 2.0646 3.83324 1.94065C3.98992 1.8167 4.18397 1.7495 4.38375 1.75C4.87375 1.75 5.271 2.14725 5.271 2.63725V7.88375C5.2641 8.00193 5.2815 8.12027 5.32211 8.23146C5.36273 8.34265 5.42571 8.44434 5.50716 8.53024C5.5886 8.61615 5.6868 8.68445 5.79567 8.73093C5.90454 8.77741 6.02178 8.80107 6.14016 8.80048C6.25854 8.79988 6.37554 8.77502 6.48393 8.72744C6.59233 8.67987 6.68982 8.61058 6.7704 8.52385C6.85097 8.43713 6.91292 8.33481 6.95241 8.22321C6.9919 8.11161 7.00809 7.9931 7 7.875V2.625C7 2.39294 7.09219 2.17038 7.25628 2.00628C7.42038 1.84219 7.64294 1.75 7.875 1.75C8.10706 1.75 8.32962 1.84219 8.49372 2.00628C8.65781 2.17038 8.75 2.39294 8.75 2.625V7.9205C8.75487 8.15025 8.85081 8.36864 9.01671 8.52765C9.18261 8.68666 9.40488 8.77325 9.63462 8.76838C9.86437 8.7635 10.0828 8.66757 10.2418 8.50167C10.4008 8.33577 10.4874 8.1135 10.4825 7.88375V2.63375C10.4825 2.1455 10.878 1.75 11.368 1.75C11.4065 1.75 11.578 1.75 11.7653 1.8445ZM15.75 9.625C15.75 7.53642 16.5797 5.53339 18.0565 4.05654C19.5334 2.57969 21.5364 1.75 23.625 1.75C23.8571 1.75 24.0796 1.84219 24.2437 2.00628C24.4078 2.17038 24.5 2.39294 24.5 2.625V13.0778L24.5333 13.3875C24.6724 14.6936 24.806 16.0003 24.934 17.3075C25.1493 19.5055 25.375 21.9695 25.375 22.75C25.375 23.6783 25.0063 24.5685 24.3499 25.2249C23.6935 25.8813 22.8033 26.25 21.875 26.25C20.9467 26.25 20.0565 25.8813 19.4001 25.2249C18.7437 24.5685 18.375 23.6783 18.375 22.75C18.375 21.9695 18.6007 19.5055 18.816 17.3075C18.9263 16.1928 19.0365 15.1253 19.1187 14.3343L19.1537 14H17.5C17.0359 14 16.5908 13.8156 16.2626 13.4874C15.9344 13.1593 15.75 12.7141 15.75 12.25V9.625Z" fill="white"/>
</svg>
