<svg width="440" height="826" viewBox="0 0 440 826" fill="none" xmlns="http://www.w3.org/2000/svg">
<path d="M-5 0.5C29.5 84.5 6.5 405.5 80.5 477.5C142.498 537.822 187.5 490 300 498.5C359.5 509 370.89 521.81 391.5 535C456 581 526.5 702 462.5 934C446.399 992.364 388.424 1010.54 339.123 1016.1C305.135 1038.93 265.638 1052 223.5 1052C132.061 1052 53.0575 990.44 15.8017 901.211C3.7546 893.472 -7.57321 885.841 -18 878.5L-5 0.5Z" fill="#1F1F1F"/>
<path fill-rule="evenodd" clip-rule="evenodd" d="M423.844 1004.2C432.561 994.087 439.393 981.814 443.5 966.926C507.5 734.926 437 613.926 372.5 567.926C369.533 566.027 366.757 564.136 364.001 562.259C347.614 551.096 331.934 540.415 281 531.426C238.94 528.248 206.314 532.943 178.707 536.916C132.474 543.568 100.319 548.196 61.5 510.426C21.1988 471.214 11.5958 336.793 3.93828 229.605C-2.46473 139.977 -7.50749 69.3892 -28 89.4263L-28.4189 127.685C-32.5298 115.516 -37.8154 111.401 -45 118.426L-54 940.427C-43.5732 947.767 -32.2454 955.398 -20.1983 963.138C17.0575 1052.37 96.0609 1113.93 187.5 1113.93C229.638 1113.93 269.135 1100.85 303.123 1078.02C350.014 1072.74 404.751 1056.04 423.844 1004.2ZM418.03 1010.37C392.358 1035.33 354.172 1045.18 320.123 1049.02C286.135 1071.85 246.638 1084.93 204.5 1084.93C113.061 1084.93 34.0575 1023.37 -3.19826 934.138C-15.2454 926.398 -26.5732 918.767 -37 911.427L-28.5388 138.634C-30.1483 131.479 -31.9249 125.991 -33.9027 122.368C-35.6045 119.25 -37.0603 118.248 -38.0105 118.048C-38.723 117.898 -39.9968 118.042 -42.0144 119.758L-50.9829 938.88C-40.9493 945.917 -30.0939 953.215 -18.5768 960.614L-17.7901 961.119L-17.4299 961.982C19.4553 1050.32 97.5017 1110.93 187.5 1110.93C229.001 1110.93 267.921 1098.05 301.45 1075.53L302.058 1075.12L302.787 1075.04C347.24 1070.03 397.318 1054.86 418.03 1010.37ZM421.225 1002.63C396.504 1030.99 356.253 1041.93 319.787 1046.04L319.058 1046.12L318.45 1046.53C284.921 1069.05 246.001 1081.93 204.5 1081.93C114.502 1081.93 36.4553 1021.32 -0.429874 932.982L-0.790119 932.119L-1.57677 931.614C-13.0939 924.215 -23.9493 916.917 -33.9829 909.88L-25.7065 153.968C-25.6052 154.625 -25.5047 155.289 -25.405 155.961C-21.5467 181.946 -18.9461 218.346 -16.058 258.767C-15.4298 267.559 -14.7881 276.541 -14.1169 285.647C-10.3672 336.517 -5.70231 391.161 2.6726 437.615C6.86034 460.843 11.9904 482.111 18.4336 499.882C24.8589 517.604 32.6828 532.114 42.4079 541.576C58.1958 556.938 73.0571 565.557 88.3197 569.849C103.542 574.129 118.929 574.036 135.614 572.344C144.123 571.481 152.971 570.208 162.354 568.859L162.356 568.858C189.878 564.899 221.998 560.278 263.626 563.407C293.119 568.62 310.521 574.374 323.037 580.373C331.98 584.659 338.4 589.033 345.142 593.626C347.914 595.515 350.741 597.441 353.819 599.412C416.995 644.512 487.356 764.044 423.608 995.129C422.897 997.707 422.101 1000.21 421.225 1002.63ZM426.481 995.995C426.487 995.972 426.494 995.949 426.5 995.926C490.5 763.926 420 642.926 355.5 596.926C352.533 595.027 349.757 593.136 347.001 591.259C330.614 580.096 314.934 569.415 264 560.426C221.94 557.248 189.314 561.943 161.707 565.916C115.474 572.568 83.3185 577.196 44.5 539.426C4.19879 500.214 -5.40421 365.793 -13.0617 258.605C-16.6566 208.284 -19.8228 163.965 -25.5351 138.316L-25.0144 90.7581C-22.9968 89.0422 -21.723 88.8978 -21.0105 89.0479C-20.0603 89.2481 -18.6045 90.2505 -16.9027 93.3677C-13.5463 99.5156 -10.7695 111.035 -8.40497 126.961C-4.54675 152.946 -1.94605 189.346 0.94202 229.767C1.57016 238.559 2.21189 247.541 2.88312 256.647C6.63277 307.517 11.2977 362.161 19.6726 408.615C23.8603 431.843 28.9904 453.111 35.4336 470.882C41.8589 488.604 49.6828 503.114 59.4079 512.576C75.1958 527.938 90.0571 536.557 105.32 540.849C120.542 545.129 135.929 545.036 152.614 543.344C161.123 542.481 169.971 541.208 179.354 539.859L179.356 539.858C206.878 535.899 238.998 531.278 280.626 534.407C310.119 539.62 327.521 545.374 340.037 551.373C348.98 555.659 355.4 560.033 362.142 564.626C364.914 566.515 367.741 568.441 370.819 570.412C433.995 615.512 504.356 735.044 440.608 966.129C437.443 977.601 432.601 987.484 426.481 995.995Z" fill="#A7A7A7"/>
</svg>
